<svg viewBox="0 0 200 200" xmlns="http://www.w3.org/2000/svg">
  <!-- Body -->
  <ellipse cx="100" cy="120" rx="45" ry="55" fill="#FFD93D"/>
  
  <!-- Diamond pattern on body -->
  <g opacity="0.2">
    <line x1="70" y1="80" x2="130" y2="80" stroke="#FFA500" stroke-width="2"/>
    <line x1="70" y1="100" x2="130" y2="100" stroke="#FFA500" stroke-width="2"/>
    <line x1="70" y1="120" x2="130" y2="120" stroke="#FFA500" stroke-width="2"/>
    <line x1="70" y1="140" x2="130" y2="140" stroke="#FFA500" stroke-width="2"/>
    <line x1="85" y1="70" x2="85" y2="160" stroke="#FFA500" stroke-width="2"/>
    <line x1="100" y1="65" x2="100" y2="165" stroke="#FFA500" stroke-width="2"/>
    <line x1="115" y1="70" x2="115" y2="160" stroke="#FFA500" stroke-width="2"/>
  </g>
  
  <!-- Leaves -->
  <path d="M 100 50 L 85 70 L 100 65 Z" fill="#6BCF7F"/>
  <path d="M 100 50 L 115 70 L 100 65 Z" fill="#6BCF7F"/>
  <path d="M 100 45 L 90 65 L 100 60 Z" fill="#5AB56E"/>
  <path d="M 100 45 L 110 65 L 100 60 Z" fill="#5AB56E"/>
  <path d="M 95 48 L 82 68 L 95 63 Z" fill="#7DD98A"/>
  <path d="M 105 48 L 118 68 L 105 63 Z" fill="#7DD98A"/>
  
  <!-- Eyes -->
  <circle cx="88" cy="115" r="8" fill="#2C3E50"/>
  <circle cx="112" cy="115" r="8" fill="#2C3E50"/>
  <circle cx="90" cy="113" r="3" fill="#FFFFFF"/>
  <circle cx="114" cy="113" r="3" fill="#FFFFFF"/>
  
  <!-- Mouth -->
  <path d="M 90 130 Q 100 135 110 130" stroke="#2C3E50" stroke-width="3" fill="none" stroke-linecap="round"/>
  
  <!-- Arms -->
  <ellipse cx="60" cy="125" rx="8" ry="15" fill="#FFD93D"/>
  <ellipse cx="140" cy="125" rx="8" ry="15" fill="#FFD93D"/>
  
  <!-- Legs -->
  <ellipse cx="85" cy="175" rx="12" ry="8" fill="#FFD93D"/>
  <ellipse cx="115" cy="175" rx="12" ry="8" fill="#FFD93D"/>
</svg>